REM DIRINDEX 1\2,1\3,1\4
REM DIRNAME folder01,folder02,folder03,folder04
TITLE ""
FILE "CD1-22.mp3" MP3
  TRACK 01 AUDIO
    TITLE "2:cjc031_1388"
    INDEX 01 00:00:00
  TRACK 02 AUDIO
    TITLE "3:cjc031_1389"
    INDEX 01 00:01:26
  TRACK 03 AUDIO
    TITLE "2:cjc031_1390"
    INDEX 01 00:02:59
  TRACK 04 AUDIO
    TITLE "3:cjc031_1391"
    INDEX 01 00:03:72
  TRACK 05 AUDIO
    TITLE "2:cjc031_1392"
    INDEX 01 00:05:48
  TRACK 06 AUDIO
    TITLE "3:cjc031_1393"
    INDEX 01 00:06:67
  TRACK 07 AUDIO
    TITLE "2:cjc031_1394"
    INDEX 01 00:09:08
  TRACK 08 AUDIO
    TITLE "3:cjc031_1395"
    INDEX 01 00:10:27
  TRACK 09 AUDIO
    TITLE "2:cjc031_1396"
    INDEX 01 00:11:54
  TRACK 10 AUDIO
    TITLE "3:cjc031_1397"
    INDEX 01 00:13:04
  TRACK 11 AUDIO
    TITLE "2:cjc031_1398"
    INDEX 01 00:14:39
  TRACK 12 AUDIO
    TITLE "3:cjc031_1399"
    INDEX 01 00:15:66
  TRACK 13 AUDIO
    TITLE "2:cjc031_1400"
    INDEX 01 00:17:31
  TRACK 14 AUDIO
    TITLE "3:cjc031_1401"
    INDEX 01 00:18:54
  TRACK 15 AUDIO
    TITLE "2:cjc031_1402"
    INDEX 01 00:20:28
  TRACK 16 AUDIO
    TITLE "3:cjc031_1403"
    INDEX 01 00:21:66
  TRACK 17 AUDIO
    TITLE "2:cjc031_1404"
    INDEX 01 00:23:36
  TRACK 18 AUDIO
    TITLE "3:cjc031_1405"
    INDEX 01 00:24:51
  TRACK 19 AUDIO
    TITLE "2:cjc031_1406"
    INDEX 01 00:26:11
  TRACK 20 AUDIO
    TITLE "3:cjc031_1407"
    INDEX 01 00:27:26
  TRACK 21 AUDIO
    TITLE "2:cjc031_1408"
    INDEX 01 00:28:62
  TRACK 22 AUDIO
    TITLE "3:cjc031_1409"
    INDEX 01 00:30:12
  TRACK 23 AUDIO
    TITLE "2:cjc031_1410"
    INDEX 01 00:31:61
  TRACK 24 AUDIO
    TITLE "3:cjc031_1411"
    INDEX 01 00:33:13
  TRACK 25 AUDIO
    TITLE "2:cjc031_1412"
    INDEX 01 00:34:42
  TRACK 26 AUDIO
    TITLE "3:cjc031_1413"
    INDEX 01 00:35:63
  TRACK 27 AUDIO
    TITLE "2:cjc031_1414"
    INDEX 01 00:37:07
  TRACK 28 AUDIO
    TITLE "3:cjc031_1415"
    INDEX 01 00:38:39
  TRACK 29 AUDIO
    TITLE "2:cjc031_1416"
    INDEX 01 00:40:07
  TRACK 30 AUDIO
    TITLE "3:cjc031_1417"
    INDEX 01 00:41:18
  TRACK 31 AUDIO
    TITLE "2:cjc031_1418"
    INDEX 01 00:42:53
  TRACK 32 AUDIO
    TITLE "3:cjc031_1419"
    INDEX 01 00:43:66
  TRACK 33 AUDIO
    TITLE "2:cjc031_1420"
    INDEX 01 00:45:28
  TRACK 34 AUDIO
    TITLE "3:cjc031_1421"
    INDEX 01 00:46:41
  TRACK 35 AUDIO
    TITLE "2:cjc031_1422"
    INDEX 01 00:47:58
  TRACK 36 AUDIO
    TITLE "3:cjc031_1423"
    INDEX 01 00:49:00
  TRACK 37 AUDIO
    TITLE "2:cjc031_1424"
    INDEX 01 00:50:48
  TRACK 38 AUDIO
    TITLE "3:cjc031_1425"
    INDEX 01 00:52:00
  TRACK 39 AUDIO
    TITLE "2:cjc031_1426"
    INDEX 01 00:53:49
  TRACK 40 AUDIO
    TITLE "3:cjc031_1427"
    INDEX 01 00:55:08
  TRACK 41 AUDIO
    TITLE "2:cjc031_1428"
    INDEX 01 00:56:37
  TRACK 42 AUDIO
    TITLE "3:cjc031_1429"
    INDEX 01 00:58:03
  TRACK 43 AUDIO
    TITLE "2:cjc031_1430"
    INDEX 01 00:59:55
  TRACK 44 AUDIO
    TITLE "3:cjc031_1431"
    INDEX 01 01:00:66
  TRACK 45 AUDIO
    TITLE "2:cjc031_1432"
    INDEX 01 01:02:22
  TRACK 46 AUDIO
    TITLE "3:cjc031_1433"
    INDEX 01 01:03:43
  TRACK 47 AUDIO
    TITLE "2:cjc031_1434"
    INDEX 01 01:05:13
  TRACK 48 AUDIO
    TITLE "3:cjc031_1435"
    INDEX 01 01:06:30
  TRACK 49 AUDIO
    TITLE "2:cjc031_1436"
    INDEX 01 01:07:57
  TRACK 50 AUDIO
    TITLE "3:cjc031_1437"
    INDEX 01 01:09:07
  TRACK 51 AUDIO
    TITLE "2:cjc031_1438"
    INDEX 01 01:10:49
  TRACK 52 AUDIO
    TITLE "3:cjc031_1439"
    INDEX 01 01:12:54
  TRACK 53 AUDIO
    TITLE "2:cjc031_1440"
    INDEX 01 01:14:27
  TRACK 54 AUDIO
    TITLE "3:cjc031_1441"
    INDEX 01 01:15:52
  TRACK 55 AUDIO
    TITLE "2:cjc031_1442"
    INDEX 01 01:17:12
  TRACK 56 AUDIO
    TITLE "3:cjc031_1443"
    INDEX 01 01:18:23
  TRACK 57 AUDIO
    TITLE "2:cjc031_1444"
    INDEX 01 01:19:46
  TRACK 58 AUDIO
    TITLE "3:cjc031_1445"
    INDEX 01 01:20:69
  TRACK 59 AUDIO
    TITLE "2:cjc031_1446"
    INDEX 01 01:22:48
  TRACK 60 AUDIO
    TITLE "3:cjc031_1447"
    INDEX 01 01:23:62
  TRACK 61 AUDIO
    TITLE "2:cjc031_1448"
    INDEX 01 01:25:11
  TRACK 62 AUDIO
    TITLE "3:cjc031_1449"
    INDEX 01 01:26:40
  TRACK 63 AUDIO
    TITLE "2:cjc031_1450"
    INDEX 01 01:28:18
  TRACK 64 AUDIO
    TITLE "3:cjc031_1451"
    INDEX 01 01:29:37
  TRACK 65 AUDIO
    TITLE "2:cjc031_1452"
    INDEX 01 01:30:66
  TRACK 66 AUDIO
    TITLE "3:cjc031_1453"
    INDEX 01 01:32:13
  TRACK 67 AUDIO
    TITLE "2:cjc031_1454"
    INDEX 01 01:33:42
  TRACK 68 AUDIO
    TITLE "3:cjc031_1455"
    INDEX 01 01:34:69
  TRACK 69 AUDIO
    TITLE "2:cjc031_1456"
    INDEX 01 01:36:39
  TRACK 70 AUDIO
    TITLE "3:cjc031_1457"
    INDEX 01 01:37:56
  TRACK 71 AUDIO
    TITLE "2:cjc031_1458"
    INDEX 01 01:39:12
  TRACK 72 AUDIO
    TITLE "3:cjc031_1459"
    INDEX 01 01:40:74
  TRACK 73 AUDIO
    TITLE "2:cjc031_1460"
    INDEX 01 01:42:47
  TRACK 74 AUDIO
    TITLE "3:cjc031_1461"
    INDEX 01 01:43:64
  TRACK 75 AUDIO
    TITLE "2:cjc031_1462"
    INDEX 01 01:45:26
  TRACK 76 AUDIO
    TITLE "3:cjc031_1463"
    INDEX 01 01:46:35
  TRACK 77 AUDIO
    TITLE "2:cjc031_1464"
    INDEX 01 01:47:62
  TRACK 78 AUDIO
    TITLE "3:cjc031_1465"
    INDEX 01 01:48:71
  TRACK 79 AUDIO
    TITLE "2:cjc031_1466"
    INDEX 01 01:50:43
  TRACK 80 AUDIO
    TITLE "3:cjc031_1467"
    INDEX 01 01:52:02
  TRACK 81 AUDIO
    TITLE "0:"
    INDEX 01 01:53:41
